<?xml version="1.0" encoding="UTF-8"?>
<svg  version="1.1" viewBox="100 100 500 350" xmlns="http://www.w3.org/2000/svg" xmlns:xlink="http://www.w3.org/1999/xlink">
 <path fill="#e1b16a" d="m495.6 414.4c5.9375 0 11.637-2.3594 15.836-6.5586 4.2031-4.2031 6.5625-9.8984 6.5625-15.84v-22.398c0-35.648-14.16-69.832-39.363-95.035-25.207-25.207-59.391-39.367-95.035-39.367h-136.3l51.352-51.352c5.6602-5.6602 7.8711-13.914 5.8008-21.648-2.0742-7.7344-8.1133-13.777-15.848-15.848-7.7344-2.0742-15.988 0.13672-21.648 5.8008l-70.449 70.504c-9.2773 9.2734-14.488 21.855-14.488 34.973 0 13.117 5.2109 25.695 14.488 34.973l76.047 76.047c5.6641 5.6602 13.914 7.8711 21.648 5.8008 7.7344-2.0742 13.777-8.1133 15.848-15.848 2.0742-7.7344-0.13672-15.988-5.8008-21.648l-56.949-56.953h136.3c23.762 0 46.551 9.4414 63.355 26.242 16.805 16.805 26.242 39.594 26.242 63.359v22.398c0 5.9414 2.3594 11.637 6.5625 15.84 4.1992 4.1992 9.8984 6.5586 15.84 6.5586z"/>
</svg>
